<svg width="27" height="27" viewBox="0 0 27 27" fill="none" xmlns="http://www.w3.org/2000/svg">
<circle cx="13.5" cy="13.5" r="13.5" fill="#D1C7EF"/>
<path d="M17.0544 9.21044V9.2099C15.7333 8.11357 14.0097 7.70407 12.3614 8.04532C13.0374 9.00353 13.6516 10.0007 14.1917 11.0348C15.2143 10.5581 16.1763 9.94332 17.0544 9.21044Z" fill="#F7F7F7"/>
<path d="M15.2739 13.4082V13.4077C16.5073 13.1547 17.7905 13.1309 19.0624 13.3421C19.025 12.0145 18.5256 10.8033 17.7158 9.86572C16.7597 10.6712 15.7089 11.3385 14.5925 11.8601C14.8374 12.3688 15.0638 12.8844 15.2739 13.4082Z" fill="#F7F7F7"/>
<path d="M13.3256 11.3856C12.7671 10.3267 12.135 9.30508 11.4292 8.33008C9.75654 9.00066 8.48904 10.4567 8.07574 12.2436C9.87895 12.3205 11.6637 12.0205 13.3256 11.3856Z" fill="#F7F7F7"/>
<path d="M14.3694 13.6392C14.1754 13.162 13.9658 12.6918 13.7416 12.2271C11.9216 12.9361 10.0041 13.2784 7.94519 13.1674C7.86015 14.6895 8.35306 16.0355 9.2414 17.0891C10.5793 15.4278 12.3782 14.2372 14.3694 13.6392Z" fill="#F7F7F7"/>
<path d="M15.6152 14.287V14.2876C16.0577 15.5226 16.4049 16.7922 16.6601 18.0863C17.9156 17.2201 18.7921 15.8519 19.012 14.2718C17.8734 14.0703 16.7229 14.079 15.6152 14.287Z" fill="#F7F7F7"/>
<path d="M9.90009 17.7492H9.90063C11.55 19.1483 13.8413 19.4657 15.8086 18.5655C15.5535 17.1783 15.1819 15.8209 14.7025 14.5024C12.831 15.0495 11.14 16.1729 9.90009 17.7492Z" fill="#F7F7F7"/>
</svg>
