<svg width="27" height="27" viewBox="0 0 27 27" fill="none" xmlns="http://www.w3.org/2000/svg">
<circle cx="13.5" cy="13.5" r="13.5" fill="#D1C7EF"/>
<g clip-path="url(#clip0)">
<path d="M20.9965 20V19.9995H21V14.865C21 12.3531 20.4593 10.4182 17.5227 10.4182C16.1111 10.4182 15.1637 11.1929 14.777 11.9273H14.7362V10.6527H11.9519V19.9995H14.8511V15.3713C14.8511 14.1527 15.0821 12.9744 16.5912 12.9744C18.0781 12.9744 18.1003 14.365 18.1003 15.4495V20H20.9965Z" fill="#F7F7F7"/>
<path d="M7.23102 10.6533H10.1337V20.0001H7.23102V10.6533Z" fill="#F7F7F7"/>
<path d="M8.68117 6C7.75308 6 7 6.75308 7 7.68117C7 8.60925 7.75308 9.37808 8.68117 9.37808C9.60925 9.37808 10.3623 8.60925 10.3623 7.68117C10.3617 6.75308 9.60867 6 8.68117 6V6Z" fill="#F7F7F7"/>
</g>
<defs>
<clipPath id="clip0">
<rect width="14" height="14" fill="white" transform="translate(7 6)"/>
</clipPath>
</defs>
</svg>
